<?xml version="1.0" encoding="UTF-8" standalone="no"?>
<svg
   width="543.35382"
   height="361.03616"
   viewBox="0 0 543.35382 361.03616"
   fill="none"
   version="1.1"
   id="svg35"
   xmlns="http://www.w3.org/2000/svg"
   xmlns:svg="http://www.w3.org/2000/svg">
  <defs
     id="defs35" />
  <path
     d="m 543.3538,170.55615 v -18.191 c 0,-1.717 -0.338,-3.418 -0.996,-5.005 -0.657,-1.587 -1.62,-3.029 -2.835,-4.243 -1.214,-1.215 -2.656,-2.178 -4.243,-2.836 -1.587,-0.657 -3.288,-0.995 -5.005,-0.995 h -36.166 c -3.469,0 -6.796,-1.378 -9.249,-3.831 -2.453,-2.453 -3.831,-5.78 -3.831,-9.249 v -18.191 c 0,-7.223 15.856,-13.079001 23.08,-13.079001 h 1.457 c 3.469,0 6.796,-1.378 9.249,-3.831 2.453,-2.453 3.831,-5.78 3.831,-9.249 v -18.191 c 0,-1.718 -0.339,-3.418 -0.996,-5.005 -0.657,-1.587 -1.621,-3.029 -2.835,-4.243 -1.215,-1.215 -2.657,-2.178 -4.243,-2.836 -1.587,-0.657 -3.288,-0.995 -5.006,-0.995 H 63.6588 c -1.718,0 -3.418,0.338 -5.005,0.995 -1.587,0.658 -3.029,1.621 -4.243,2.836 -1.215,1.214 -2.178,2.656 -2.836,4.243 -0.657,1.587 -0.995,3.287 -0.995,5.005 v 18.191 c 0,1.718 0.338,3.419 0.995,5.006 0.658,1.586 1.621,3.028 2.836,4.243 1.214,1.214 2.656,2.178 4.243,2.835 1.587,0.657 3.287,0.996 5.005,0.996 3.469,0 6.796,1.378 9.249,3.831 2.453,2.452001 3.831,5.779001 3.831,9.248001 v 18.191 c 0,3.469 -1.378,6.796 -3.831,9.249 -2.453,2.453 -5.78,3.831 -9.249,3.831 H 13.0795 c -1.7176,0 -3.4184003,0.338 -5.0053003,0.995 -1.5869,0.658 -3.0287,1.621 -4.2433,2.836 -1.2145,1.214 -2.1779,2.656 -2.83520001,4.243 -0.6574,1.587 -0.99569999441648,3.288 -0.99569999441648,5.005 v 18.191 c 0,3.469 1.37810000441648,6.796 3.83090000441648,9.249 2.4529,2.453 5.7797,3.831 9.2486003,3.831 h 19.8466 c 3.4689,0 6.7957,1.378 9.2485,3.831 2.4529,2.453 3.8309,5.779 3.8309,9.248 v 18.192 c 0,1.717 -0.3383,3.418 -0.9956,5.005 -0.6573,1.587 -1.6207,3.029 -2.8352,4.243 -1.2146,1.215 -2.6565,2.178 -4.2433,2.835 -1.5869,0.658 -3.2877,0.996 -5.0053,0.996 h -0.048 c -3.4689,0 -6.7957,1.378 -9.2486,3.831 -2.4529,2.453 -3.8309,5.78 -3.8309,9.248 v 18.192 c 0,1.717 0.3383,3.418 0.9956,5.005 0.6573,1.587 1.6208,3.029 2.8353,4.243 1.2145,1.215 2.6564,2.178 4.2433,2.835 1.5869,0.658 3.2877,0.996 5.0053,0.996 h 2.8714 c 3.4688,0 6.7957,1.378 9.2485,3.831 2.4528,2.453 3.8308,5.78 3.8308,9.248 v 18.192 c 0,3.469 -1.378,6.795 -3.8307,9.248 -2.4529,2.453 -5.7797,3.831 -9.2486,3.831 H 18.625 c -1.7176,0 -3.4184,0.338 -5.0053,0.996 -1.5869,0.657 -3.0287,1.62 -4.2433003,2.835 -1.2145,1.215 -2.1779,2.656 -2.8352,4.243 -0.6574,1.587 -0.9957,3.288 -0.9957,5.006 v 18.191 c 0,3.469 1.3781,6.795 3.8309,9.248 2.4529003,2.453 5.7797003,3.831 9.2486003,3.831 h 483.9628 c 3.469,0 6.796,-1.378 9.249,-3.831 2.453,-2.453 3.831,-5.779 3.831,-9.248 v -18.191 c 0,-1.718 -0.339,-3.419 -0.996,-5.006 -0.657,-1.587 -1.621,-3.028 -2.835,-4.243 -1.215,-1.215 -2.657,-2.178 -4.244,-2.835 -1.586,-0.658 -3.287,-0.996 -5.005,-0.996 h -11.34 c -3.469,0 -6.796,-1.378 -9.249,-3.831 -2.453,-2.453 -3.831,-5.779 -3.831,-9.248 v -18.192 c 0,-3.468 1.378,-6.795 3.831,-9.248 2.453,-2.453 5.78,-3.831 9.249,-3.831 h 26.74 c 3.468,0 6.795,-1.378 9.248,-3.831 2.453,-2.453 3.831,-5.78 3.831,-9.248 v -18.192 c 0,-3.468 -1.378,-6.795 -3.831,-9.248 -2.453,-2.453 -5.78,-3.831 -9.248,-3.831 h -8.112 c -3.469,0 -6.796,-1.378 -9.249,-3.831 -2.453,-2.453 -3.831,-5.78 -3.831,-9.248 v -18.192 c 0,-3.469 1.378,-6.795 3.831,-9.248 2.453,-2.453 5.78,-3.831 9.249,-3.831 h 20.399 c 3.468,0 6.795,-1.378 9.248,-3.831 2.453,-2.453 3.831,-5.78 3.831,-9.249 z"
     fill="#DBE8EC"
     id="path1"
     style="fill:#f3f5f8;fill-opacity:1" />
  <path
     d="m 168.4598,138.68315 c -0.003,6.633 -2.639,12.993 -7.328,17.684 -4.689,4.691 -11.048,7.329 -17.681,7.335 h -93.45 c -4.7573,0.001 -9.3469,-1.758 -12.8862,-4.936 -3.5394,-3.179 -5.7786,-7.555 -6.2872,-12.285 -0.5086,-4.73 0.7494,-9.481 3.532,-13.34 2.7826,-3.858 6.8935,-6.552 11.5422,-7.563 0.3719,-5.629 2.8682,-10.906 6.9842,-14.764 4.115,-3.858 9.543,-6.008 15.184,-6.016 2.284,0 4.554,0.363 6.725,1.074 3.293,-6.369001 8.458,-11.577001 14.8,-14.924001 6.341,-3.346 13.556,-4.67 20.673,-3.793 7.116,0.877 13.794,3.912 19.134,8.697 5.34,4.786001 9.086,11.092001 10.735,18.070001 3.531,-0.477 7.124,-0.193 10.536,0.833 3.413,1.026 6.566,2.77 9.249,5.115 2.682,2.345 4.832,5.238 6.305,8.482 1.473,3.245 2.234,6.767 2.233,10.331 z"
     fill="#F9AE2B"
     id="path2"
     style="fill:#f9b53e;fill-opacity:1" />
  <path
     d="m 330.9568,285.59815 -18.579,-27.62 c 14.978,-13.308 24.417,-31.75 26.451,-51.682 2.034,-19.931 -3.485,-39.901 -15.465,-55.959 -11.981,-16.058 -29.551,-27.037 -49.236,-30.764 -19.686,-3.728 -40.053,0.067 -57.075,10.634 -17.022,10.567 -29.46,27.136 -34.853,46.431 -5.394,19.296 -3.351,39.913 5.725,57.774 9.076,17.862 24.523,31.668 43.288,38.688 18.765,7.021 39.481,6.744 58.052,-0.774 l 18.11,26.804 c 0.889,1.548 2.074,2.906 3.487,3.997 1.413,1.09 3.028,1.892 4.751,2.358 1.723,0.467 3.521,0.59 5.292,0.361 1.77,-0.228 3.479,-0.803 5.027,-1.691 1.548,-0.889 2.907,-2.074 3.997,-3.487 1.091,-1.413 1.892,-3.028 2.359,-4.751 0.466,-1.723 0.589,-3.521 0.361,-5.292 -0.229,-1.77 -0.804,-3.479 -1.692,-5.027 z"
     fill="#409CB5"
     id="path3"
     style="fill:#3466e4;fill-opacity:1" />
  <path
     d="m 259.4098,255.07915 c 31.507,0 57.048,-25.541 57.048,-57.048 0,-31.506 -25.541,-57.048 -57.048,-57.048 -31.507,0 -57.048,25.542 -57.048,57.048 0,31.507 25.541,57.048 57.048,57.048 z"
     fill="#EE781D"
     id="path4"
     style="fill:#ef8635;fill-opacity:1" />
  <path
     d="m 259.4098,140.98315 c -2.723,0.003 -5.443,0.2 -8.139,0.588 13.58,1.956 25.999,8.741 34.982,19.111 8.983,10.37 13.927,23.63 13.927,37.349 0,13.72 -4.944,26.98 -13.927,37.35 -8.983,10.369 -21.402,17.154 -34.982,19.111 7.755,1.118 15.658,0.626 23.214,-1.444 7.557,-2.07 14.606,-5.675 20.709,-10.59 6.102,-4.915 11.126,-11.034 14.76,-17.976 3.633,-6.941 5.797,-14.557 6.358,-22.373 0.56,-7.815 -0.496,-15.662 -3.101,-23.051 -2.606,-7.389 -6.706,-14.163 -12.045,-19.898 -5.338,-5.735 -11.801,-10.308 -18.985,-13.436 -7.184,-3.127 -14.936,-4.741 -22.771,-4.741 z"
     fill="#E06714"
     id="path5"
     style="fill:#eb731e;fill-opacity:1" />
  <path
     d="m 228.8538,207.97115 c 4.876,0 8.829,-3.952 8.829,-8.829 0,-4.876 -3.953,-8.828 -8.829,-8.828 -4.876,0 -8.829,3.952 -8.829,8.828 0,4.877 3.953,8.829 8.829,8.829 z"
     fill="#F9AE2B"
     id="path6"
     style="fill:#f9b53e;fill-opacity:1" />
  <path
     d="m 287.9558,193.27715 c 3.375,0 6.112,-2.736 6.112,-6.112 0,-3.376 -2.737,-6.112 -6.112,-6.112 -3.376,0 -6.112,2.736 -6.112,6.112 0,3.376 2.736,6.112 6.112,6.112 z"
     fill="#e06714"
     id="path7" />
  <path
     d="m 253.8258,179.23215 c 2.251,0 4.075,-1.824 4.075,-4.075 0,-2.25 -1.824,-4.075 -4.075,-4.075 -2.25,0 -4.075,1.825 -4.075,4.075 0,2.251 1.825,4.075 4.075,4.075 z"
     fill="#e06714"
     id="path8" />
  <path
     d="m 255.3348,233.49915 c 2.25,0 4.075,-1.824 4.075,-4.075 0,-2.25 -1.825,-4.074 -4.075,-4.074 -2.251,0 -4.075,1.824 -4.075,4.074 0,2.251 1.824,4.075 4.075,4.075 z"
     fill="#e06714"
     id="path9" />
  <path
     d="m 278.8838,220.01315 c 3.045,0 5.513,-2.468 5.513,-5.513 0,-3.044 -2.468,-5.512 -5.513,-5.512 -3.045,0 -5.513,2.468 -5.513,5.512 0,3.045 2.468,5.513 5.513,5.513 z"
     fill="#F9AE2B"
     id="path10"
     style="fill:#f9b53e;fill-opacity:1" />
  <path
     d="m 216.8928,253.83015 c 1.73,0 3.132,-1.403 3.132,-3.133 0,-1.73 -1.402,-3.132 -3.132,-3.132 -1.73,0 -3.133,1.402 -3.133,3.132 0,1.73 1.403,3.133 3.133,3.133 z"
     fill="#3086A3"
     id="path11"
     style="fill:#1e53db;fill-opacity:1" />
  <path
     d="m 319.5898,167.57915 c 1.73,0 3.132,-1.403 3.132,-3.133 0,-1.73 -1.402,-3.132 -3.132,-3.132 -1.73,0 -3.132,1.402 -3.132,3.132 0,1.73 1.402,3.133 3.132,3.133 z"
     fill="#3086A3"
     id="path12"
     style="fill:#1e53db;fill-opacity:1" />
  <path
     d="m 317.6878,231.56115 c -1.901,4.035 -4.232,7.853 -6.952,11.388 -2.814,3.514 -5.971,6.738 -9.425,9.625 -3.527,2.839 -7.321,5.33 -11.329,7.438 -8.107,4.162 -17.008,6.548 -26.11,6.999 -2.269,0.021 -4.533,0.105 -6.794,-0.033 -2.258,-0.126 -4.507,-0.377 -6.736,-0.752 -8.882,-1.426 -17.322,-4.86 -24.676,-10.041 7.918,3.697 16.396,6.044 25.087,6.947 8.561,0.836 17.202,0.127 25.513,-2.091 4.133,-1.125 8.163,-2.603 12.045,-4.416 3.868,-1.876 7.582,-4.056 11.106,-6.518 3.497,-2.556 6.79,-5.38 9.85,-8.445 3.039,-3.167 5.853,-6.542 8.421,-10.101 z"
     fill="#3086A3"
     id="path13"
     style="fill:#1e53db;fill-opacity:1" />
  <path
     d="m 193.5108,211.36815 c -3.137,-11.548 -2.886,-23.755 0.723,-35.164 1.787,-5.747 4.357,-11.221 7.638,-16.267 1.642,-2.524 3.459,-4.931 5.437,-7.204 1.961,-2.288 4.074,-4.442 6.323,-6.448 2.266,-1.987 4.654,-3.832 7.149,-5.522 1.28,-0.795 2.513,-1.664 3.838,-2.383 l 1.963,-1.118 2.019,-1.013 c 1.338,-0.691 2.746,-1.235 4.119,-1.847 1.413,-0.516 2.796,-1.112 4.238,-1.543 2.849,-0.952 5.763,-1.696 8.719,-2.226 5.892,-1.04 11.897,-1.274 17.852,-0.694 5.892,0.601 11.666,2.052 17.143,4.308 -5.644,-1.447 -11.437,-2.235 -17.262,-2.348 -5.752,-0.086 -11.494,0.515 -17.103,1.791 -5.56,1.31 -10.935,3.306 -16.001,5.942 -2.527,1.308 -4.974,2.766 -7.329,4.364 -2.336,1.623 -4.571,3.386 -6.693,5.28 -8.585,7.581 -15.15,17.178 -19.106,27.927 -3.96,10.926 -5.218,22.648 -3.667,34.165 z"
     fill="#3086A3"
     id="path14"
     style="fill:#1e53db;fill-opacity:1" />
  <path
     d="m 149.9458,257.03015 v 23.165 c 0,20.119 1.219,21.643 22.861,23.776 v 8.536 h -71.327 v -8.536 c 22.861,-2.133 24.385,-3.962 24.385,-24.081 v -22.86 H 45.3931 v -9.145 c 28.9577,-41.151 60.3537,-85.654 90.8357,-128.024 h 13.717 v 122.536 h 29.872 v 14.633 z m -24.081,-105.162 c -19.203,28.042 -40.541,59.133 -61.573,90.529 h 61.573 z"
     fill="#409CB5"
     id="path15"
     style="fill:#3466e4;fill-opacity:1" />
  <path
     d="m 451.1028,257.03015 v 23.165 c 0,20.119 1.22,21.643 22.862,23.776 v 8.536 h -71.328 v -8.536 c 22.861,-2.133 24.385,-3.962 24.385,-24.081 v -22.86 h -80.471 v -9.145 c 28.957,-41.151 60.354,-85.654 90.836,-128.024 h 13.716 v 122.536 h 29.873 v 14.633 z m -24.081,-105.162 c -19.203,28.042 -40.54,59.133 -61.572,90.529 h 61.572 z"
     fill="#409CB5"
     id="path16"
     style="fill:#3466e4;fill-opacity:1" />
  <path
     d="m 499.1158,68.217149 c -0.004,8.736 -3.475,17.114 -9.652,23.293 -6.176,6.179 -14.552,9.654001 -23.288,9.661001 h -123.088 c -6.266,0.001 -12.312,-2.315001 -16.973,-6.502001 -4.662,-4.187 -7.612,-9.95 -8.282,-16.18 -0.67,-6.231 0.987,-12.489 4.653,-17.571 3.665,-5.082 9.079,-8.631 15.202,-9.962 0.49,-7.414 3.778,-14.365 9.199,-19.447 5.421,-5.081 12.57,-7.9135 20,-7.9235 3.009,2e-4 5.999,0.4779 8.858,1.4155 4.337,-8.3901 11.14,-15.2501994 19.493,-19.6577994 8.354,-4.40759997 17.856,-6.15119997 27.23,-4.99639997 9.374,1.15469997 18.169,5.15259997 25.203,11.45579937 7.033,6.3031 11.968,14.6094 14.14,23.8004 4.651,-0.628 9.383,-0.254 13.877,1.097 4.495,1.351 8.649,3.649 12.182,6.738 3.534,3.089 6.365,6.898 8.305,11.172 1.94,4.274 2.942,8.913 2.941,13.607 z"
     fill="#F9AE2B"
     id="path17"
     style="fill:#f9b53e;fill-opacity:1" />
  <path
     d="m 498.9428,325.89315 c -0.003,6.632 -2.638,12.993 -7.327,17.684 -4.689,4.691 -11.049,7.329 -17.681,7.335 h -93.451 c -4.757,10e-4 -9.347,-1.758 -12.886,-4.937 -3.539,-3.179 -5.778,-7.554 -6.287,-12.284 -0.509,-4.73 0.749,-9.481 3.532,-13.34 2.783,-3.858 6.893,-6.552 11.542,-7.563 0.372,-5.629 2.868,-10.906 6.984,-14.764 4.116,-3.858 9.543,-6.008 15.184,-6.016 2.285,0 4.554,0.363 6.725,1.074 3.293,-6.369 8.458,-11.578 14.8,-14.924 6.342,-3.346 13.556,-4.67 20.673,-3.793 7.117,0.877 13.794,3.912 19.134,8.697 5.34,4.786 9.087,11.092 10.735,18.07 3.532,-0.477 7.124,-0.193 10.536,0.833 3.413,1.025 6.566,2.77 9.249,5.115 2.683,2.345 4.833,5.237 6.305,8.482 1.473,3.245 2.234,6.767 2.233,10.331 z"
     fill="#F9AE2B"
     id="path18"
     style="fill:#f9b53e;fill-opacity:1" />
  <path
     d="m 27.5906,340.57415 c 9.0729,0 16.428,-7.355 16.428,-16.428 0,-9.073 -7.3551,-16.428 -16.428,-16.428 -9.0729,0 -16.428,7.355 -16.428,16.428 0,9.073 7.3551,16.428 16.428,16.428 z"
     fill="#B9D4DB"
     id="path28"
     style="fill:#b3bbd1;fill-opacity:1" />
  <path
     d="m 48.2658,306.34215 c 4.726,0 8.557,-3.831 8.557,-8.557 0,-4.726 -3.831,-8.557 -8.557,-8.557 -4.7261,0 -8.5573,3.831 -8.5573,8.557 0,4.726 3.8312,8.557 8.5573,8.557 z"
     fill="#B9D4DB"
     id="path29"
     style="fill:#000000;fill-opacity:0" />
  <path
     d="m 90.7968,343.46015 c 4.09,0 7.406,-3.316 7.406,-7.406 0,-4.09 -3.316,-7.406 -7.406,-7.406 -4.09,0 -7.406,3.316 -7.406,7.406 0,4.09 3.316,7.406 7.406,7.406 z"
     fill="#B9D4DB"
     id="path30"
     style="fill:#b3bbd1;fill-opacity:1" />
  <path
     d="m 73.5968,319.03715 c 2.726,0 4.936,-2.21 4.936,-4.936 0,-2.726 -2.21,-4.936 -4.936,-4.936 -2.726,0 -4.936,2.21 -4.936,4.936 0,2.726 2.21,4.936 4.936,4.936 z"
     fill="#B9D4DB"
     id="path31"
     style="fill:#b3bbd1;fill-opacity:1" />
  <path
     d="m 61.9778,350.91015 c 6.535,0 11.833,-5.298 11.833,-11.833 0,-6.535 -5.298,-11.832 -11.833,-11.832 -6.535,0 -11.832,5.297 -11.832,11.832 0,6.535 5.297,11.833 11.832,11.833 z"
     fill="#B9D4DB"
     id="path32"
     style="fill:#b3bbd1;fill-opacity:1" />
  <path
     d="m 254.9578,103.23515 c 9.073,0 16.428,-7.355001 16.428,-16.428001 0,-9.073 -7.355,-16.428 -16.428,-16.428 -9.072,0 -16.427,7.355 -16.427,16.428 0,9.073 7.355,16.428001 16.427,16.428001 z"
     fill="#B9D4DB"
     id="path33"
     style="fill:#b3bbd1;fill-opacity:1" />
  <path
     d="m 222.3708,110.64115 c 4.091,0 7.406,-3.315 7.406,-7.406 0,-4.090001 -3.315,-7.406001 -7.406,-7.406001 -4.09,0 -7.406,3.316 -7.406,7.406001 0,4.091 3.316,7.406 7.406,7.406 z"
     fill="#B9D4DB"
     id="path34"
     style="fill:#b3bbd1;fill-opacity:1" />
  <path
     d="m 213.2918,86.807149 c 6.535,0 11.833,-5.298 11.833,-11.833 0,-6.535 -5.298,-11.832 -11.833,-11.832 -6.535,0 -11.832,5.297 -11.832,11.832 0,6.535 5.297,11.833 11.832,11.833 z"
     fill="#B9D4DB"
     id="path35"
     style="fill:#b3bbd1;fill-opacity:1" />
</svg>
